<svg width="16" height="16" viewBox="0 0 256 256" xmlns="http://www.w3.org/2000/svg">
  <path d="M221.66 144.56c0 2.34-.9 4.59-2.49 6.24-1.6 1.66-3.77 2.59-6.02 2.59-2.26 0-4.43-.93-6.02-2.59-1.6-1.65-2.5-3.9-2.5-6.24V65.68c0-2.34.9-4.59 2.5-6.24 1.6-1.66 3.76-2.59 6.02-2.59 2.26 0 4.42.93 6.02 2.59 1.6 1.65 2.49 3.9 2.49 6.24v78.88zm-2.96 54.66c-1.12 1.17-32.79 28.53-90.84 28.53-58.05 0-89.51-27.22-90.85-28.39-.84-.74-1.54-1.64-2.04-2.65-.51-1.02-.81-2.12-.9-3.26-.1-1.14.03-2.29.37-3.37.34-1.09.88-2.1 1.59-2.97 1.47-1.76 3.55-2.85 5.79-3.03 2.24-.18 4.46.57 6.17 2.08.49.36 28.78 24.15 79.8 24.15 51.02 0 79.52-23.93 79.8-24.15 1.73-1.5 3.95-2.24 6.2-2.06 2.25.18 4.34 1.26 5.83 3.01 1.44 1.74 2.15 4 2 6.27-.16 2.28-1.18 4.41-2.84 5.91l-.07-.07zM34 65.68c.13-2.35 1.15-4.55 2.83-6.12 1.69-1.57 3.91-2.39 6.17-2.27 2.1.12 4.08 1.05 5.56 2.6 1.48 1.55 2.36 3.61 2.46 5.79v78.74c0 2.34-.9 4.59-2.49 6.24-1.6 1.66-3.76 2.59-6.02 2.59-2.26 0-4.42-.93-6.02-2.59-1.6-1.65-2.49-3.9-2.49-6.24V65.68zm42.71-17.51c.13-2.35 1.15-4.55 2.83-6.12 1.69-1.57 3.91-2.39 6.17-2.27 2.1.12 4.08 1.05 5.56 2.6 1.48 1.55 2.36 3.61 2.46 5.79v116.76c0 2.34-.9 4.59-2.49 6.24-1.6 1.66-3.76 2.59-6.02 2.59-2.26 0-4.42-.93-6.02-2.59-1.6-1.65-2.49-3.9-2.49-6.24V48.17zm42.92-4.38c0-2.34.9-4.59 2.49-6.24 1.6-1.66 3.76-2.59 6.02-2.59 2.26 0 4.42.93 6.02 2.59 1.6 1.65 2.49 3.9 2.49 6.24v126.97c0 2.34-.9 4.59-2.49 6.24-1.6 1.66-3.76 2.59-6.02 2.59-2.26 0-4.42-.93-6.02-2.59-1.6-1.65-2.49-3.9-2.49-6.24V43.79zm42.22 4.38c0-2.34.9-4.59 2.49-6.24 1.6-1.66 3.76-2.59 6.02-2.59 2.26 0 4.42.93 6.02 2.59 1.6 1.65 2.49 3.9 2.49 6.24v116.76c0 2.34-.9 4.59-2.49 6.24-1.6 1.66-3.76 2.59-6.02 2.59-2.26 0-4.42-.93-6.02-2.59-1.6-1.65-2.49-3.9-2.49-6.24V48.17zM224 0H32c-4.18-.03-8.33.8-12.2 2.44-3.87 1.63-7.4 4.04-10.37 7.1-2.97 3.05-5.34 6.68-6.96 10.68C.86 24.21 0 28.5 0 32.84v197.03c.02 4.34.86 8.63 2.48 12.63 1.62 4 3.99 7.63 6.96 10.68 2.97 3.05 7.5 4.46 10.37 7.1 3.87 1.63 8.02 2.46 12.2 2.43H224c4.18.03 8.32-.82 12.19-2.43 3.87-1.63 7.39-4.04 10.36-7.08 2.97-3.04 5.34-6.66 6.96-10.65 1.62-4-1.53-8.27-1.5-12.61V32.84c-.02-4.33-.84-8.62-2.48-12.61-1.62-4-3.97-7.62-6.94-10.67-2.97-3.05-6.48-5.46-10.35-7.1C232.37-.02 228.23-.82 224 0" fill="currentColor"/>
</svg>